<svg version="1.1" viewBox="0.0 0.0 600.0 371.0" fill="none" stroke="none" stroke-linecap="square" stroke-miterlimit="10" width="600" height="371" xmlns:xlink="http://www.w3.org/1999/xlink" xmlns="http://www.w3.org/2000/svg"><path fill="#ffffff" fill-opacity="0.0" d="M0 0L600.0 0L600.0 371.0L0 371.0L0 0Z" fill-rule="nonzero"/><path fill="#ff00ff" d="M249.13333 0C309.13574 0 365.43234 29.022917 400.23718 77.899445C435.042 126.77597 444.05585 189.46878 424.431 246.17111L249.13333 185.5Z" fill-rule="nonzero"/><path fill="#00ff00" d="M424.431 246.17111C393.52554 335.4665 300.4364 387.2599 208.26573 366.44223C116.09504 345.62457 54.302933 258.84967 64.7763 164.93951C75.249664 71.02935 154.64095 2.842171E-14 249.13333 0L249.13333 185.5Z" fill-rule="nonzero"/><path fill="#ff00ff" d="M535.0 7.5C535.0 10.813708 532.3137 13.5 529.0 13.5C525.6863 13.5 523.0 10.813708 523.0 7.5C523.0 4.1862917 525.6863 1.5 529.0 1.5C532.3137 1.5 535.0 4.1862917 535.0 7.5Z" fill-rule="nonzero"/><path fill="#ffffff" d="M545.2031 12.0L544.0781 12.0L544.0781 3.46875L545.2031 3.46875L545.2031 12.0ZM547.84375 5.65625L547.875 6.453125Q548.6094 5.546875 549.78125 5.546875Q551.7969 5.546875 551.8125 7.8125L551.8125 12.0L550.71875 12.0L550.71875 7.796875Q550.71875 7.125 550.40625 6.796875Q550.1094 6.46875 549.4531 6.46875Q548.9219 6.46875 548.5156 6.75Q548.125 7.03125 547.90625 7.484375L547.90625 12.0L546.8281 12.0L546.8281 5.65625L547.84375 5.65625ZM557.5156 10.3125Q557.5156 9.875 557.1719 9.640625Q556.84375 9.390625 556.0156 9.21875Q555.2031 9.046875 554.71875 8.796875Q554.2344 8.546875 554.0 8.21875Q553.78125 7.875 553.78125 7.40625Q553.78125 6.625 554.4375 6.09375Q555.09375 5.546875 556.125 5.546875Q557.2031 5.546875 557.8594 6.109375Q558.53125 6.65625 558.53125 7.515625L557.4531 7.515625Q557.4531 7.078125 557.0625 6.765625Q556.6875 6.4375 556.125 6.4375Q555.53125 6.4375 555.1875 6.703125Q554.8594 6.953125 554.8594 7.359375Q554.8594 7.75 555.1719 7.953125Q555.4844 8.15625 556.2969 8.34375Q557.1094 8.515625 557.6094 8.765625Q558.1094 9.015625 558.34375 9.375Q558.59375 9.734375 558.59375 10.234375Q558.59375 11.09375 557.90625 11.609375Q557.2344 12.125 556.15625 12.125Q555.3906 12.125 554.7969 11.859375Q554.21875 11.578125 553.8906 11.09375Q553.5625 10.609375 553.5625 10.046875L554.6406 10.046875Q554.6719 10.59375 555.0781 10.921875Q555.4844 11.234375 556.15625 11.234375Q556.7656 11.234375 557.1406 10.984375Q557.5156 10.734375 557.5156 10.3125ZM561.2969 4.125L561.2969 5.65625L562.46875 5.65625L562.46875 6.5L561.2969 6.5L561.2969 10.421875Q561.2969 10.8125 561.4531 11.0Q561.6094 11.1875 561.9844 11.1875Q562.1719 11.1875 562.5 11.125L562.5 12.0Q562.0781 12.125 561.6719 12.125Q560.9531 12.125 560.5781 11.6875Q560.2031 11.234375 560.2031 10.421875L560.2031 6.5L559.0469 6.5L559.0469 5.65625L560.2031 5.65625L560.2031 4.125L561.2969 4.125ZM567.7344 12.0Q567.6406 11.8125 567.5781 11.328125Q566.8281 12.125 565.78125 12.125Q564.84375 12.125 564.2344 11.59375Q563.6406 11.0625 563.6406 10.234375Q563.6406 9.25 564.3906 8.703125Q565.1406 8.15625 566.5156 8.15625L567.5625 8.15625L567.5625 7.65625Q567.5625 7.09375 567.21875 6.765625Q566.8906 6.421875 566.21875 6.421875Q565.6406 6.421875 565.25 6.71875Q564.8594 7.0 564.8594 7.421875L563.7656 7.421875Q563.7656 6.9375 564.09375 6.5Q564.4375 6.0625 565.0156 5.8125Q565.59375 5.546875 566.28125 5.546875Q567.3906 5.546875 568.0 6.09375Q568.625 6.640625 568.65625 7.59375L568.65625 10.515625Q568.65625 11.390625 568.875 11.90625L568.875 12.0L567.7344 12.0ZM565.9375 11.171875Q566.4531 11.171875 566.90625 10.90625Q567.3594 10.640625 567.5625 10.21875L567.5625 8.921875L566.71875 8.921875Q564.71875 8.921875 564.71875 10.09375Q564.71875 10.59375 565.0625 10.890625Q565.40625 11.171875 565.9375 11.171875ZM570.5625 8.78125Q570.5625 7.296875 571.25 6.421875Q571.9375 5.546875 573.0625 5.546875Q574.21875 5.546875 574.875 6.359375L574.9219 5.65625L575.9219 5.65625L575.9219 11.84375Q575.9219 13.078125 575.1875 13.78125Q574.4531 14.5 573.2344 14.5Q572.5469 14.5 571.8906 14.203125Q571.2344 13.90625 570.8906 13.40625L571.4531 12.75Q572.1406 13.609375 573.15625 13.609375Q573.9375 13.609375 574.375 13.15625Q574.8281 12.71875 574.8281 11.90625L574.8281 11.359375Q574.1719 12.125 573.0469 12.125Q571.9375 12.125 571.25 11.234375Q570.5625 10.328125 570.5625 8.78125ZM571.65625 8.90625Q571.65625 9.96875 572.09375 10.59375Q572.53125 11.203125 573.3281 11.203125Q574.34375 11.203125 574.8281 10.265625L574.8281 7.375Q574.3281 6.46875 573.3281 6.46875Q572.5469 6.46875 572.09375 7.078125Q571.65625 7.6875 571.65625 8.90625ZM580.8906 6.625Q580.6406 6.59375 580.3594 6.59375Q579.28125 6.59375 578.90625 7.5L578.90625 12.0L577.8281 12.0L577.8281 5.65625L578.875 5.65625L578.8906 6.390625Q579.4219 5.546875 580.40625 5.546875Q580.71875 5.546875 580.8906 5.625L580.8906 6.625ZM585.7344 12.0Q585.6406 11.8125 585.5781 11.328125Q584.8281 12.125 583.78125 12.125Q582.84375 12.125 582.2344 11.59375Q581.6406 11.0625 581.6406 10.234375Q581.6406 9.25 582.3906 8.703125Q583.1406 8.15625 584.5156 8.15625L585.5625 8.15625L585.5625 7.65625Q585.5625 7.09375 585.21875 6.765625Q584.8906 6.421875 584.21875 6.421875Q583.6406 6.421875 583.25 6.71875Q582.8594 7.0 582.8594 7.421875L581.7656 7.421875Q581.7656 6.9375 582.09375 6.5Q582.4375 6.0625 583.0156 5.8125Q583.59375 5.546875 584.28125 5.546875Q585.3906 5.546875 586.0 6.09375Q586.625 6.640625 586.65625 7.59375L586.65625 10.515625Q586.65625 11.390625 586.875 11.90625L586.875 12.0L585.7344 12.0ZM583.9375 11.171875Q584.4531 11.171875 584.90625 10.90625Q585.3594 10.640625 585.5625 10.21875L585.5625 8.921875L584.71875 8.921875Q582.71875 8.921875 582.71875 10.09375Q582.71875 10.59375 583.0625 10.890625Q583.40625 11.171875 583.9375 11.171875ZM589.84375 5.65625L589.875 6.359375Q590.5625 5.546875 591.75 5.546875Q593.0781 5.546875 593.5625 6.5625Q593.875 6.109375 594.375 5.828125Q594.8906 5.546875 595.5781 5.546875Q597.6719 5.546875 597.7031 7.75L597.7031 12.0L596.625 12.0L596.625 7.8125Q596.625 7.140625 596.3125 6.8125Q596.0 6.46875 595.2656 6.46875Q594.65625 6.46875 594.25 6.828125Q593.8594 7.1875 593.7969 7.796875L593.7969 12.0L592.71875 12.0L592.71875 7.84375Q592.71875 6.46875 591.3594 6.46875Q590.2969 6.46875 589.90625 7.375L589.90625 12.0L588.8125 12.0L588.8125 5.65625L589.84375 5.65625Z" fill-rule="nonzero"/><path fill="#00ff00" d="M535.0 32.5C535.0 35.81371 532.3137 38.5 529.0 38.5C525.6863 38.5 523.0 35.81371 523.0 32.5C523.0 29.18629 525.6863 26.5 529.0 26.5C532.3137 26.5 535.0 29.18629 535.0 32.5Z" fill-rule="nonzero"/><path fill="#ffffff" d="M545.8281 34.3125L546.0 35.4375L546.2344 34.421875L547.9219 28.46875L548.875 28.46875L550.5156 34.421875L550.75 35.453125L550.9375 34.296875L552.2656 28.46875L553.3906 28.46875L551.3281 37.0L550.2969 37.0L548.53125 30.78125L548.40625 30.125L548.2656 30.78125L546.4531 37.0L545.4219 37.0L543.3594 28.46875L544.4844 28.46875L545.8281 34.3125ZM555.90625 31.421875Q556.625 30.546875 557.78125 30.546875Q559.7969 30.546875 559.8125 32.8125L559.8125 37.0L558.71875 37.0L558.71875 32.796875Q558.71875 32.125 558.40625 31.796875Q558.1094 31.46875 557.4531 31.46875Q556.9219 31.46875 556.5156 31.75Q556.125 32.03125 555.90625 32.484375L555.90625 37.0L554.8281 37.0L554.8281 28.0L555.90625 28.0L555.90625 31.421875ZM565.7344 37.0Q565.6406 36.8125 565.5781 36.328125Q564.8281 37.125 563.78125 37.125Q562.84375 37.125 562.2344 36.59375Q561.6406 36.0625 561.6406 35.234375Q561.6406 34.25 562.3906 33.703125Q563.1406 33.15625 564.5156 33.15625L565.5625 33.15625L565.5625 32.65625Q565.5625 32.09375 565.21875 31.765625Q564.8906 31.421875 564.21875 31.421875Q563.6406 31.421875 563.25 31.71875Q562.8594 32.0 562.8594 32.421875L561.7656 32.421875Q561.7656 31.9375 562.09375 31.5Q562.4375 31.0625 563.0156 30.8125Q563.59375 30.546875 564.28125 30.546875Q565.3906 30.546875 566.0 31.09375Q566.625 31.640625 566.65625 32.59375L566.65625 35.515625Q566.65625 36.390625 566.875 36.90625L566.875 37.0L565.7344 37.0ZM563.9375 36.171875Q564.4531 36.171875 564.90625 35.90625Q565.3594 35.640625 565.5625 35.21875L565.5625 33.921875L564.71875 33.921875Q562.71875 33.921875 562.71875 35.09375Q562.71875 35.59375 563.0625 35.890625Q563.40625 36.171875 563.9375 36.171875ZM570.2969 29.125L570.2969 30.65625L571.46875 30.65625L571.46875 31.5L570.2969 31.5L570.2969 35.421875Q570.2969 35.8125 570.4531 36.0Q570.6094 36.1875 570.9844 36.1875Q571.1719 36.1875 571.5 36.125L571.5 37.0Q571.0781 37.125 570.6719 37.125Q569.9531 37.125 569.5781 36.6875Q569.2031 36.234375 569.2031 35.421875L569.2031 31.5L568.0469 31.5L568.0469 30.65625L569.2031 30.65625L569.2031 29.125L570.2969 29.125ZM576.5156 35.3125Q576.5156 34.875 576.1719 34.640625Q575.84375 34.390625 575.0156 34.21875Q574.2031 34.046875 573.71875 33.796875Q573.2344 33.546875 573.0 33.21875Q572.78125 32.875 572.78125 32.40625Q572.78125 31.625 573.4375 31.09375Q574.09375 30.546875 575.125 30.546875Q576.2031 30.546875 576.8594 31.109375Q577.53125 31.65625 577.53125 32.515625L576.4531 32.515625Q576.4531 32.078125 576.0625 31.765625Q575.6875 31.4375 575.125 31.4375Q574.53125 31.4375 574.1875 31.703125Q573.8594 31.953125 573.8594 32.359375Q573.8594 32.75 574.1719 32.953125Q574.4844 33.15625 575.2969 33.34375Q576.1094 33.515625 576.6094 33.765625Q577.1094 34.015625 577.34375 34.375Q577.59375 34.734375 577.59375 35.234375Q577.59375 36.09375 576.90625 36.609375Q576.2344 37.125 575.15625 37.125Q574.3906 37.125 573.7969 36.859375Q573.21875 36.578125 572.8906 36.09375Q572.5625 35.609375 572.5625 35.046875L573.6406 35.046875Q573.6719 35.59375 574.0781 35.921875Q574.4844 36.234375 575.15625 36.234375Q575.7656 36.234375 576.1406 35.984375Q576.5156 35.734375 576.5156 35.3125ZM583.7031 34.765625L580.125 34.765625L579.3281 37.0L578.1719 37.0L581.4219 28.46875L582.40625 28.46875L585.6719 37.0L584.5156 37.0L583.7031 34.765625ZM580.46875 33.84375L583.375 33.84375L581.9219 29.859375L580.46875 33.84375ZM592.1719 33.90625Q592.1719 35.34375 591.5156 36.234375Q590.8594 37.125 589.71875 37.125Q588.5625 37.125 587.90625 36.390625L587.90625 39.4375L586.8281 39.4375L586.8281 30.65625L587.8125 30.65625L587.8594 31.359375Q588.53125 30.546875 589.7031 30.546875Q590.84375 30.546875 591.5 31.40625Q592.1719 32.265625 592.1719 33.796875L592.1719 33.90625ZM591.09375 33.78125Q591.09375 32.703125 590.625 32.09375Q590.1719 31.46875 589.375 31.46875Q588.3906 31.46875 587.90625 32.328125L587.90625 35.359375Q588.3906 36.234375 589.3906 36.234375Q590.1719 36.234375 590.625 35.625Q591.09375 35.0 591.09375 33.78125ZM599.1719 33.90625Q599.1719 35.34375 598.5156 36.234375Q597.8594 37.125 596.71875 37.125Q595.5625 37.125 594.90625 36.390625L594.90625 39.4375L593.8281 39.4375L593.8281 30.65625L594.8125 30.65625L594.8594 31.359375Q595.53125 30.546875 596.7031 30.546875Q597.84375 30.546875 598.5 31.40625Q599.1719 32.265625 599.1719 33.796875L599.1719 33.90625ZM598.09375 33.78125Q598.09375 32.703125 597.625 32.09375Q597.1719 31.46875 596.375 31.46875Q595.3906 31.46875 594.90625 32.328125L594.90625 35.359375Q595.3906 36.234375 596.3906 36.234375Q597.1719 36.234375 597.625 35.625Q598.09375 35.0 598.09375 33.78125Z" fill-rule="nonzero"/></svg>