<svg version="1.1" viewBox="0.0 0.0 600.0 371.0" fill="none" stroke="none" stroke-linecap="square" stroke-miterlimit="10" width="600" height="371" xmlns:xlink="http://www.w3.org/1999/xlink" xmlns="http://www.w3.org/2000/svg"><path fill="#ffffff" fill-opacity="0.0" d="M0 0L600.0 0L600.0 371.0L0 371.0L0 0Z" fill-rule="nonzero"/><path fill="#00ff00" d="M245.13333 0C292.80292 0 338.64288 18.351551 373.14297 51.247337L245.13333 185.5Z" fill-rule="nonzero"/><path fill="#ffff00" d="M117.12368 51.247337C151.62378 18.351551 197.46375 0 245.13333 0L245.13333 185.5Z" fill-rule="nonzero"/><path fill="#ff00ff" d="M373.14297 51.247337C428.02518 103.57741 445.52948 184.0434 417.34558 254.44339C389.16168 324.84338 320.96533 371.0 245.13333 371.0C169.30133 371.0 101.10499 324.84338 72.92108 254.44339C44.737175 184.0434 62.241478 103.57741 117.12368 51.247337L245.13333 185.5Z" fill-rule="nonzero"/><path fill="#00ff00" d="M527.0 7.5C527.0 10.813708 524.3137 13.5 521.0 13.5C517.6863 13.5 515.0 10.813708 515.0 7.5C515.0 4.1862917 517.6863 1.5 521.0 1.5C524.3137 1.5 527.0 4.1862917 527.0 7.5Z" fill-rule="nonzero"/><path fill="#ffffff" d="M538.5 8.203125Q537.0625 7.78125 536.3906 7.171875Q535.7344 6.5625 535.7344 5.671875Q535.7344 4.671875 536.53125 4.015625Q537.34375 3.34375 538.6406 3.34375Q539.5156 3.34375 540.2031 3.6875Q540.8906 4.03125 541.2656 4.625Q541.65625 5.21875 541.65625 5.9375L540.5156 5.9375Q540.5156 5.15625 540.0156 4.71875Q539.53125 4.28125 538.6406 4.28125Q537.8125 4.28125 537.34375 4.65625Q536.875 5.015625 536.875 5.65625Q536.875 6.1875 537.3125 6.546875Q537.7656 6.90625 538.8281 7.203125Q539.8906 7.5 540.4844 7.859375Q541.09375 8.21875 541.375 8.703125Q541.6719 9.1875 541.6719 9.828125Q541.6719 10.875 540.8594 11.5Q540.0469 12.125 538.7031 12.125Q537.8125 12.125 537.0469 11.78125Q536.2969 11.4375 535.875 10.859375Q535.46875 10.265625 535.46875 9.53125L536.59375 9.53125Q536.59375 10.296875 537.1719 10.75Q537.75 11.203125 538.7031 11.203125Q539.59375 11.203125 540.0625 10.84375Q540.53125 10.46875 540.53125 9.84375Q540.53125 9.21875 540.09375 8.875Q539.65625 8.53125 538.5 8.203125ZM543.90625 6.421875Q544.625 5.546875 545.78125 5.546875Q547.7969 5.546875 547.8125 7.8125L547.8125 12.0L546.71875 12.0L546.71875 7.796875Q546.71875 7.125 546.40625 6.796875Q546.1094 6.46875 545.4531 6.46875Q544.9219 6.46875 544.5156 6.75Q544.125 7.03125 543.90625 7.484375L543.90625 12.0L542.8281 12.0L542.8281 3.0L543.90625 3.0L543.90625 6.421875ZM553.7344 12.0Q553.6406 11.8125 553.5781 11.328125Q552.8281 12.125 551.78125 12.125Q550.84375 12.125 550.2344 11.59375Q549.6406 11.0625 549.6406 10.234375Q549.6406 9.25 550.3906 8.703125Q551.1406 8.15625 552.5156 8.15625L553.5625 8.15625L553.5625 7.65625Q553.5625 7.09375 553.21875 6.765625Q552.8906 6.421875 552.21875 6.421875Q551.6406 6.421875 551.25 6.71875Q550.8594 7.0 550.8594 7.421875L549.7656 7.421875Q549.7656 6.9375 550.09375 6.5Q550.4375 6.0625 551.0156 5.8125Q551.59375 5.546875 552.28125 5.546875Q553.3906 5.546875 554.0 6.09375Q554.625 6.640625 554.65625 7.59375L554.65625 10.515625Q554.65625 11.390625 554.875 11.90625L554.875 12.0L553.7344 12.0ZM551.9375 11.171875Q552.4531 11.171875 552.90625 10.90625Q553.3594 10.640625 553.5625 10.21875L553.5625 8.921875L552.71875 8.921875Q550.71875 8.921875 550.71875 10.09375Q550.71875 10.59375 551.0625 10.890625Q551.40625 11.171875 551.9375 11.171875ZM559.8906 6.625Q559.6406 6.59375 559.3594 6.59375Q558.28125 6.59375 557.90625 7.5L557.90625 12.0L556.8281 12.0L556.8281 5.65625L557.875 5.65625L557.8906 6.390625Q558.4219 5.546875 559.40625 5.546875Q559.71875 5.546875 559.8906 5.625L559.8906 6.625ZM563.4531 12.125Q562.15625 12.125 561.34375 11.28125Q560.5469 10.421875 560.5469 9.0L560.5469 8.8125Q560.5469 7.859375 560.90625 7.125Q561.2656 6.375 561.90625 5.96875Q562.5625 5.546875 563.3125 5.546875Q564.5469 5.546875 565.2344 6.359375Q565.9219 7.171875 565.9219 8.6875L565.9219 9.140625L561.625 9.140625Q561.65625 10.078125 562.1719 10.65625Q562.7031 11.234375 563.5156 11.234375Q564.0781 11.234375 564.46875 11.0Q564.875 10.765625 565.1875 10.375L565.84375 10.890625Q565.0469 12.125 563.4531 12.125ZM563.3125 6.4375Q562.65625 6.4375 562.2031 6.921875Q561.7656 7.390625 561.6719 8.25L564.84375 8.25L564.84375 8.171875Q564.7969 7.34375 564.3906 6.890625Q564.0 6.4375 563.3125 6.4375ZM566.5625 8.78125Q566.5625 7.3125 567.25 6.4375Q567.9375 5.546875 569.0625 5.546875Q570.1719 5.546875 570.8281 6.296875L570.8281 3.0L571.90625 3.0L571.90625 12.0L570.90625 12.0L570.8594 11.3125Q570.2031 12.125 569.0469 12.125Q567.9531 12.125 567.25 11.21875Q566.5625 10.3125 566.5625 8.859375L566.5625 8.78125ZM567.6406 8.90625Q567.6406 9.984375 568.0781 10.59375Q568.53125 11.203125 569.3125 11.203125Q570.34375 11.203125 570.8281 10.265625L570.8281 7.359375Q570.34375 6.46875 569.3281 6.46875Q568.53125 6.46875 568.0781 7.078125Q567.6406 7.6875 567.6406 8.90625ZM582.1719 8.90625Q582.1719 10.34375 581.5156 11.234375Q580.8594 12.125 579.71875 12.125Q578.5625 12.125 577.90625 11.390625L577.90625 14.4375L576.8281 14.4375L576.8281 5.65625L577.8125 5.65625L577.8594 6.359375Q578.53125 5.546875 579.7031 5.546875Q580.84375 5.546875 581.5 6.40625Q582.1719 7.265625 582.1719 8.796875L582.1719 8.90625ZM581.09375 8.78125Q581.09375 7.703125 580.625 7.09375Q580.1719 6.46875 579.375 6.46875Q578.3906 6.46875 577.90625 7.328125L577.90625 10.359375Q578.3906 11.234375 579.3906 11.234375Q580.1719 11.234375 580.625 10.625Q581.09375 10.0 581.09375 8.78125ZM583.53125 8.765625Q583.53125 7.84375 583.8906 7.09375Q584.2656 6.34375 584.9219 5.953125Q585.5781 5.546875 586.40625 5.546875Q587.7031 5.546875 588.5 6.4375Q589.3125 7.328125 589.3125 8.828125L589.3125 8.90625Q589.3125 9.828125 588.9531 10.5625Q588.59375 11.296875 587.9375 11.71875Q587.28125 12.125 586.4219 12.125Q585.1406 12.125 584.3281 11.234375Q583.53125 10.328125 583.53125 8.84375L583.53125 8.765625ZM584.625 8.90625Q584.625 9.953125 585.1094 10.59375Q585.6094 11.234375 586.4219 11.234375Q587.25 11.234375 587.7344 10.59375Q588.21875 9.9375 588.21875 8.765625Q588.21875 7.734375 587.71875 7.09375Q587.2344 6.4375 586.40625 6.4375Q585.6094 6.4375 585.1094 7.078125Q584.625 7.703125 584.625 8.90625ZM594.5156 10.3125Q594.5156 9.875 594.1719 9.640625Q593.84375 9.390625 593.0156 9.21875Q592.2031 9.046875 591.71875 8.796875Q591.2344 8.546875 591.0 8.21875Q590.78125 7.875 590.78125 7.40625Q590.78125 6.625 591.4375 6.09375Q592.09375 5.546875 593.125 5.546875Q594.2031 5.546875 594.8594 6.109375Q595.53125 6.65625 595.53125 7.515625L594.4531 7.515625Q594.4531 7.078125 594.0625 6.765625Q593.6875 6.4375 593.125 6.4375Q592.53125 6.4375 592.1875 6.703125Q591.8594 6.953125 591.8594 7.359375Q591.8594 7.75 592.1719 7.953125Q592.4844 8.15625 593.2969 8.34375Q594.1094 8.515625 594.6094 8.765625Q595.1094 9.015625 595.34375 9.375Q595.59375 9.734375 595.59375 10.234375Q595.59375 11.09375 594.90625 11.609375Q594.2344 12.125 593.15625 12.125Q592.3906 12.125 591.7969 11.859375Q591.21875 11.578125 590.8906 11.09375Q590.5625 10.609375 590.5625 10.046875L591.6406 10.046875Q591.6719 10.59375 592.0781 10.921875Q592.4844 11.234375 593.15625 11.234375Q593.7656 11.234375 594.1406 10.984375Q594.5156 10.734375 594.5156 10.3125ZM598.2969 4.125L598.2969 5.65625L599.46875 5.65625L599.46875 6.5L598.2969 6.5L598.2969 10.421875Q598.2969 10.8125 598.4531 11.0Q598.6094 11.1875 598.9844 11.1875Q599.1719 11.1875 599.5 11.125L599.5 12.0Q599.0781 12.125 598.6719 12.125Q597.9531 12.125 597.5781 11.6875Q597.2031 11.234375 597.2031 10.421875L597.2031 6.5L596.0469 6.5L596.0469 5.65625L597.2031 5.65625L597.2031 4.125L598.2969 4.125Z" fill-rule="nonzero"/><path fill="#ff00ff" d="M527.0 32.5C527.0 35.81371 524.3137 38.5 521.0 38.5C517.6863 38.5 515.0 35.81371 515.0 32.5C515.0 29.18629 517.6863 26.5 521.0 26.5C524.3137 26.5 527.0 29.18629 527.0 32.5Z" fill-rule="nonzero"/><path fill="#ffffff" d="M541.8906 29.390625L539.1406 29.390625L539.1406 37.0L538.03125 37.0L538.03125 29.390625L535.28125 29.390625L535.28125 28.46875L541.8906 28.46875L541.8906 29.390625ZM545.4531 37.125Q544.15625 37.125 543.34375 36.28125Q542.5469 35.421875 542.5469 34.0L542.5469 33.8125Q542.5469 32.859375 542.90625 32.125Q543.2656 31.375 543.90625 30.96875Q544.5625 30.546875 545.3125 30.546875Q546.5469 30.546875 547.2344 31.359375Q547.9219 32.171875 547.9219 33.6875L547.9219 34.140625L543.625 34.140625Q543.65625 35.078125 544.1719 35.65625Q544.7031 36.234375 545.5156 36.234375Q546.0781 36.234375 546.46875 36.0Q546.875 35.765625 547.1875 35.375L547.84375 35.890625Q547.0469 37.125 545.4531 37.125ZM545.3125 31.4375Q544.65625 31.4375 544.2031 31.921875Q543.7656 32.390625 543.6719 33.25L546.84375 33.25L546.84375 33.171875Q546.7969 32.34375 546.3906 31.890625Q546.0 31.4375 545.3125 31.4375ZM550.9531 32.96875L552.3594 30.65625L553.625 30.65625L551.5469 33.796875L553.6875 37.0L552.4375 37.0L550.96875 34.625L549.5 37.0L548.2344 37.0L550.375 33.796875L548.3125 30.65625L549.5625 30.65625L550.9531 32.96875ZM556.2969 29.125L556.2969 30.65625L557.46875 30.65625L557.46875 31.5L556.2969 31.5L556.2969 35.421875Q556.2969 35.8125 556.4531 36.0Q556.6094 36.1875 556.9844 36.1875Q557.1719 36.1875 557.5 36.125L557.5 37.0Q557.0781 37.125 556.6719 37.125Q555.9531 37.125 555.5781 36.6875Q555.2031 36.234375 555.2031 35.421875L555.2031 31.5L554.0469 31.5L554.0469 30.65625L555.2031 30.65625L555.2031 29.125L556.2969 29.125Z" fill-rule="nonzero"/><path fill="#ffff00" d="M527.0 57.5C527.0 60.81371 524.3137 63.5 521.0 63.5C517.6863 63.5 515.0 60.81371 515.0 57.5C515.0 54.18629 517.6863 51.5 521.0 51.5C524.3137 51.5 527.0 54.18629 527.0 57.5Z" fill-rule="nonzero"/><path fill="#ffffff" d="M537.2031 62.0L536.0781 62.0L536.0781 53.46875L537.2031 53.46875L537.2031 62.0ZM539.84375 55.65625L539.875 56.359375Q540.5625 55.546875 541.75 55.546875Q543.0781 55.546875 543.5625 56.5625Q543.875 56.109375 544.375 55.828125Q544.8906 55.546875 545.5781 55.546875Q547.6719 55.546875 547.7031 57.75L547.7031 62.0L546.625 62.0L546.625 57.8125Q546.625 57.140625 546.3125 56.8125Q546.0 56.46875 545.2656 56.46875Q544.65625 56.46875 544.25 56.828125Q543.8594 57.1875 543.7969 57.796875L543.7969 62.0L542.71875 62.0L542.71875 57.84375Q542.71875 56.46875 541.3594 56.46875Q540.2969 56.46875 539.90625 57.375L539.90625 62.0L538.8125 62.0L538.8125 55.65625L539.84375 55.65625ZM553.7344 62.0Q553.6406 61.8125 553.5781 61.328125Q552.8281 62.125 551.78125 62.125Q550.84375 62.125 550.2344 61.59375Q549.6406 61.0625 549.6406 60.234375Q549.6406 59.25 550.3906 58.703125Q551.1406 58.15625 552.5156 58.15625L553.5625 58.15625L553.5625 57.65625Q553.5625 57.09375 553.21875 56.765625Q552.8906 56.421875 552.21875 56.421875Q551.6406 56.421875 551.25 56.71875Q550.8594 57.0 550.8594 57.421875L549.7656 57.421875Q549.7656 56.9375 550.09375 56.5Q550.4375 56.0625 551.0156 55.8125Q551.59375 55.546875 552.28125 55.546875Q553.3906 55.546875 554.0 56.09375Q554.625 56.640625 554.65625 57.59375L554.65625 60.515625Q554.65625 61.390625 554.875 61.90625L554.875 62.0L553.7344 62.0ZM551.9375 61.171875Q552.4531 61.171875 552.90625 60.90625Q553.3594 60.640625 553.5625 60.21875L553.5625 58.921875L552.71875 58.921875Q550.71875 58.921875 550.71875 60.09375Q550.71875 60.59375 551.0625 60.890625Q551.40625 61.171875 551.9375 61.171875ZM556.5625 58.78125Q556.5625 57.296875 557.25 56.421875Q557.9375 55.546875 559.0625 55.546875Q560.21875 55.546875 560.875 56.359375L560.9219 55.65625L561.9219 55.65625L561.9219 61.84375Q561.9219 63.078125 561.1875 63.78125Q560.4531 64.5 559.2344 64.5Q558.5469 64.5 557.8906 64.203125Q557.2344 63.90625 556.8906 63.40625L557.4531 62.75Q558.1406 63.609375 559.15625 63.609375Q559.9375 63.609375 560.375 63.15625Q560.8281 62.71875 560.8281 61.90625L560.8281 61.359375Q560.1719 62.125 559.0469 62.125Q557.9375 62.125 557.25 61.234375Q556.5625 60.328125 556.5625 58.78125ZM557.65625 58.90625Q557.65625 59.96875 558.09375 60.59375Q558.53125 61.203125 559.3281 61.203125Q560.34375 61.203125 560.8281 60.265625L560.8281 57.375Q560.3281 56.46875 559.3281 56.46875Q558.5469 56.46875 558.09375 57.078125Q557.65625 57.6875 557.65625 58.90625ZM566.4531 62.125Q565.15625 62.125 564.34375 61.28125Q563.5469 60.421875 563.5469 59.0L563.5469 58.8125Q563.5469 57.859375 563.90625 57.125Q564.2656 56.375 564.90625 55.96875Q565.5625 55.546875 566.3125 55.546875Q567.5469 55.546875 568.2344 56.359375Q568.9219 57.171875 568.9219 58.6875L568.9219 59.140625L564.625 59.140625Q564.65625 60.078125 565.1719 60.65625Q565.7031 61.234375 566.5156 61.234375Q567.0781 61.234375 567.46875 61.0Q567.875 60.765625 568.1875 60.375L568.84375 60.890625Q568.0469 62.125 566.4531 62.125ZM566.3125 56.4375Q565.65625 56.4375 565.2031 56.921875Q564.7656 57.390625 564.6719 58.25L567.84375 58.25L567.84375 58.171875Q567.7969 57.34375 567.3906 56.890625Q567.0 56.4375 566.3125 56.4375Z" fill-rule="nonzero"/></svg>